<mxfile host="Electron" modified="2025-01-02T06:34:43.928Z" agent="Mozilla/5.0 (Windows NT 10.0; Win64; x64) AppleWebKit/537.36 (KHTML, like Gecko) draw.io/23.0.2 Chrome/120.0.6099.109 Electron/28.1.0 Safari/537.36" etag="QLsdpB18PD9Drj30OuBM" version="23.0.2" type="device">
  <diagram name="Sales Data Mart " id="hLIjLHAYCb3o381HsihC">
    <mxGraphModel dx="1290" dy="1869" grid="1" gridSize="10" guides="1" tooltips="1" connect="1" arrows="1" fold="1" page="1" pageScale="1" pageWidth="1920" pageHeight="1200" math="0" shadow="0">
      <root>
        <mxCell id="3UP7FawPSVQ9M-GqKKiO-0" />
        <mxCell id="3UP7FawPSVQ9M-GqKKiO-1" parent="3UP7FawPSVQ9M-GqKKiO-0" />
        <mxCell id="3UP7FawPSVQ9M-GqKKiO-40" value="&lt;font style=&quot;&quot;&gt;&lt;b style=&quot;font-size: 38px;&quot;&gt;Sales Data Mart &lt;/b&gt;&lt;font style=&quot;font-size: 30px;&quot;&gt;(Star Schema)&lt;/font&gt;&lt;br style=&quot;font-size: 38px;&quot;&gt;&lt;/font&gt;" style="text;html=1;strokeColor=none;fillColor=none;align=left;verticalAlign=middle;whiteSpace=wrap;rounded=1;fontSize=38;fontFamily=Helvetica;" parent="3UP7FawPSVQ9M-GqKKiO-1" vertex="1">
          <mxGeometry x="40" y="-1170" width="610" height="54" as="geometry" />
        </mxCell>
        <mxCell id="R6O-aEDRoKmDsrgJR9yp-0" value="&lt;font style=&quot;font-size: 18px;&quot;&gt;gold.dim_customers&lt;/font&gt;" style="shape=table;startSize=40;container=1;collapsible=1;childLayout=tableLayout;fixedRows=1;rowLines=0;fontStyle=1;align=center;resizeLast=1;html=1;rounded=1;fillColor=#fff2cc;strokeColor=#d6b656;" parent="3UP7FawPSVQ9M-GqKKiO-1" vertex="1">
          <mxGeometry x="430" y="-890" width="250" height="440" as="geometry" />
        </mxCell>
        <mxCell id="R6O-aEDRoKmDsrgJR9yp-1" value="" style="shape=tableRow;horizontal=0;startSize=0;swimlaneHead=0;swimlaneBody=0;fillColor=none;collapsible=0;dropTarget=0;points=[[0,0.5],[1,0.5]];portConstraint=eastwest;top=0;left=0;right=0;bottom=1;rounded=1;fontStyle=1;fontSize=16;" parent="R6O-aEDRoKmDsrgJR9yp-0" vertex="1">
          <mxGeometry y="40" width="250" height="39" as="geometry" />
        </mxCell>
        <mxCell id="R6O-aEDRoKmDsrgJR9yp-2" value="PK" style="shape=partialRectangle;connectable=0;fillColor=none;top=0;left=0;bottom=0;right=0;fontStyle=1;overflow=hidden;whiteSpace=wrap;html=1;rounded=1;fontSize=16;" parent="R6O-aEDRoKmDsrgJR9yp-1" vertex="1">
          <mxGeometry width="30" height="39" as="geometry">
            <mxRectangle width="30" height="39" as="alternateBounds" />
          </mxGeometry>
        </mxCell>
        <mxCell id="R6O-aEDRoKmDsrgJR9yp-3" value="&lt;span style=&quot;background-color: rgb(224, 224, 224);&quot;&gt;customer_key&lt;/span&gt;" style="shape=partialRectangle;connectable=0;fillColor=none;top=0;left=0;bottom=0;right=0;align=left;spacingLeft=6;fontStyle=5;overflow=hidden;whiteSpace=wrap;html=1;rounded=1;fontSize=16;" parent="R6O-aEDRoKmDsrgJR9yp-1" vertex="1">
          <mxGeometry x="30" width="220" height="39" as="geometry">
            <mxRectangle width="220" height="39" as="alternateBounds" />
          </mxGeometry>
        </mxCell>
        <mxCell id="R6O-aEDRoKmDsrgJR9yp-4" value="" style="shape=tableRow;horizontal=0;startSize=0;swimlaneHead=0;swimlaneBody=0;fillColor=none;collapsible=0;dropTarget=0;points=[[0,0.5],[1,0.5]];portConstraint=eastwest;top=0;left=0;right=0;bottom=0;rounded=1;fontStyle=1;fontSize=16;" parent="R6O-aEDRoKmDsrgJR9yp-0" vertex="1">
          <mxGeometry y="79" width="250" height="39" as="geometry" />
        </mxCell>
        <mxCell id="R6O-aEDRoKmDsrgJR9yp-5" value="" style="shape=partialRectangle;connectable=0;fillColor=none;top=0;left=0;bottom=0;right=0;editable=1;overflow=hidden;whiteSpace=wrap;html=1;rounded=1;fontStyle=1;fontSize=16;" parent="R6O-aEDRoKmDsrgJR9yp-4" vertex="1">
          <mxGeometry width="30" height="39" as="geometry">
            <mxRectangle width="30" height="39" as="alternateBounds" />
          </mxGeometry>
        </mxCell>
        <mxCell id="R6O-aEDRoKmDsrgJR9yp-6" value="customer_id" style="shape=partialRectangle;connectable=0;fillColor=none;top=0;left=0;bottom=0;right=0;align=left;spacingLeft=6;overflow=hidden;whiteSpace=wrap;html=1;rounded=1;fontStyle=1;fontSize=16;" parent="R6O-aEDRoKmDsrgJR9yp-4" vertex="1">
          <mxGeometry x="30" width="220" height="39" as="geometry">
            <mxRectangle width="220" height="39" as="alternateBounds" />
          </mxGeometry>
        </mxCell>
        <mxCell id="R6O-aEDRoKmDsrgJR9yp-7" value="" style="shape=tableRow;horizontal=0;startSize=0;swimlaneHead=0;swimlaneBody=0;fillColor=none;collapsible=0;dropTarget=0;points=[[0,0.5],[1,0.5]];portConstraint=eastwest;top=0;left=0;right=0;bottom=0;rounded=1;fontStyle=1;fontSize=16;" parent="R6O-aEDRoKmDsrgJR9yp-0" vertex="1">
          <mxGeometry y="118" width="250" height="39" as="geometry" />
        </mxCell>
        <mxCell id="R6O-aEDRoKmDsrgJR9yp-8" value="" style="shape=partialRectangle;connectable=0;fillColor=none;top=0;left=0;bottom=0;right=0;editable=1;overflow=hidden;whiteSpace=wrap;html=1;rounded=1;fontStyle=1;fontSize=16;" parent="R6O-aEDRoKmDsrgJR9yp-7" vertex="1">
          <mxGeometry width="30" height="39" as="geometry">
            <mxRectangle width="30" height="39" as="alternateBounds" />
          </mxGeometry>
        </mxCell>
        <mxCell id="R6O-aEDRoKmDsrgJR9yp-9" value="customer_number" style="shape=partialRectangle;connectable=0;fillColor=none;top=0;left=0;bottom=0;right=0;align=left;spacingLeft=6;overflow=hidden;whiteSpace=wrap;html=1;rounded=1;fontStyle=1;fontSize=16;" parent="R6O-aEDRoKmDsrgJR9yp-7" vertex="1">
          <mxGeometry x="30" width="220" height="39" as="geometry">
            <mxRectangle width="220" height="39" as="alternateBounds" />
          </mxGeometry>
        </mxCell>
        <mxCell id="R6O-aEDRoKmDsrgJR9yp-10" value="" style="shape=tableRow;horizontal=0;startSize=0;swimlaneHead=0;swimlaneBody=0;fillColor=none;collapsible=0;dropTarget=0;points=[[0,0.5],[1,0.5]];portConstraint=eastwest;top=0;left=0;right=0;bottom=0;rounded=1;fontStyle=1;fontSize=16;" parent="R6O-aEDRoKmDsrgJR9yp-0" vertex="1">
          <mxGeometry y="157" width="250" height="39" as="geometry" />
        </mxCell>
        <mxCell id="R6O-aEDRoKmDsrgJR9yp-11" value="" style="shape=partialRectangle;connectable=0;fillColor=none;top=0;left=0;bottom=0;right=0;editable=1;overflow=hidden;whiteSpace=wrap;html=1;rounded=1;fontStyle=1;fontSize=16;" parent="R6O-aEDRoKmDsrgJR9yp-10" vertex="1">
          <mxGeometry width="30" height="39" as="geometry">
            <mxRectangle width="30" height="39" as="alternateBounds" />
          </mxGeometry>
        </mxCell>
        <mxCell id="R6O-aEDRoKmDsrgJR9yp-12" value="first_name" style="shape=partialRectangle;connectable=0;fillColor=none;top=0;left=0;bottom=0;right=0;align=left;spacingLeft=6;overflow=hidden;whiteSpace=wrap;html=1;rounded=1;fontStyle=1;fontSize=16;" parent="R6O-aEDRoKmDsrgJR9yp-10" vertex="1">
          <mxGeometry x="30" width="220" height="39" as="geometry">
            <mxRectangle width="220" height="39" as="alternateBounds" />
          </mxGeometry>
        </mxCell>
        <mxCell id="R6O-aEDRoKmDsrgJR9yp-13" value="" style="shape=tableRow;horizontal=0;startSize=0;swimlaneHead=0;swimlaneBody=0;fillColor=none;collapsible=0;dropTarget=0;points=[[0,0.5],[1,0.5]];portConstraint=eastwest;top=0;left=0;right=0;bottom=0;rounded=1;fontStyle=1;fontSize=16;" parent="R6O-aEDRoKmDsrgJR9yp-0" vertex="1">
          <mxGeometry y="196" width="250" height="39" as="geometry" />
        </mxCell>
        <mxCell id="R6O-aEDRoKmDsrgJR9yp-14" value="" style="shape=partialRectangle;connectable=0;fillColor=none;top=0;left=0;bottom=0;right=0;editable=1;overflow=hidden;whiteSpace=wrap;html=1;rounded=1;fontStyle=1;fontSize=16;" parent="R6O-aEDRoKmDsrgJR9yp-13" vertex="1">
          <mxGeometry width="30" height="39" as="geometry">
            <mxRectangle width="30" height="39" as="alternateBounds" />
          </mxGeometry>
        </mxCell>
        <mxCell id="R6O-aEDRoKmDsrgJR9yp-15" value="last_name" style="shape=partialRectangle;connectable=0;fillColor=none;top=0;left=0;bottom=0;right=0;align=left;spacingLeft=6;overflow=hidden;whiteSpace=wrap;html=1;rounded=1;fontStyle=1;fontSize=16;" parent="R6O-aEDRoKmDsrgJR9yp-13" vertex="1">
          <mxGeometry x="30" width="220" height="39" as="geometry">
            <mxRectangle width="220" height="39" as="alternateBounds" />
          </mxGeometry>
        </mxCell>
        <mxCell id="R6O-aEDRoKmDsrgJR9yp-19" value="" style="shape=tableRow;horizontal=0;startSize=0;swimlaneHead=0;swimlaneBody=0;fillColor=none;collapsible=0;dropTarget=0;points=[[0,0.5],[1,0.5]];portConstraint=eastwest;top=0;left=0;right=0;bottom=0;rounded=1;fontStyle=1;fontSize=16;" parent="R6O-aEDRoKmDsrgJR9yp-0" vertex="1">
          <mxGeometry y="235" width="250" height="39" as="geometry" />
        </mxCell>
        <mxCell id="R6O-aEDRoKmDsrgJR9yp-20" value="" style="shape=partialRectangle;connectable=0;fillColor=none;top=0;left=0;bottom=0;right=0;editable=1;overflow=hidden;whiteSpace=wrap;html=1;rounded=1;fontStyle=1;fontSize=16;" parent="R6O-aEDRoKmDsrgJR9yp-19" vertex="1">
          <mxGeometry width="30" height="39" as="geometry">
            <mxRectangle width="30" height="39" as="alternateBounds" />
          </mxGeometry>
        </mxCell>
        <mxCell id="R6O-aEDRoKmDsrgJR9yp-21" value="country" style="shape=partialRectangle;connectable=0;fillColor=none;top=0;left=0;bottom=0;right=0;align=left;spacingLeft=6;overflow=hidden;whiteSpace=wrap;html=1;rounded=1;fontStyle=1;fontSize=16;" parent="R6O-aEDRoKmDsrgJR9yp-19" vertex="1">
          <mxGeometry x="30" width="220" height="39" as="geometry">
            <mxRectangle width="220" height="39" as="alternateBounds" />
          </mxGeometry>
        </mxCell>
        <mxCell id="R6O-aEDRoKmDsrgJR9yp-22" value="" style="shape=tableRow;horizontal=0;startSize=0;swimlaneHead=0;swimlaneBody=0;fillColor=none;collapsible=0;dropTarget=0;points=[[0,0.5],[1,0.5]];portConstraint=eastwest;top=0;left=0;right=0;bottom=0;rounded=1;fontStyle=1;fontSize=16;" parent="R6O-aEDRoKmDsrgJR9yp-0" vertex="1">
          <mxGeometry y="274" width="250" height="39" as="geometry" />
        </mxCell>
        <mxCell id="R6O-aEDRoKmDsrgJR9yp-23" value="" style="shape=partialRectangle;connectable=0;fillColor=none;top=0;left=0;bottom=0;right=0;editable=1;overflow=hidden;whiteSpace=wrap;html=1;rounded=1;fontStyle=1;fontSize=16;" parent="R6O-aEDRoKmDsrgJR9yp-22" vertex="1">
          <mxGeometry width="30" height="39" as="geometry">
            <mxRectangle width="30" height="39" as="alternateBounds" />
          </mxGeometry>
        </mxCell>
        <mxCell id="R6O-aEDRoKmDsrgJR9yp-24" value="marital_status" style="shape=partialRectangle;connectable=0;fillColor=none;top=0;left=0;bottom=0;right=0;align=left;spacingLeft=6;overflow=hidden;whiteSpace=wrap;html=1;rounded=1;fontStyle=1;fontSize=16;" parent="R6O-aEDRoKmDsrgJR9yp-22" vertex="1">
          <mxGeometry x="30" width="220" height="39" as="geometry">
            <mxRectangle width="220" height="39" as="alternateBounds" />
          </mxGeometry>
        </mxCell>
        <mxCell id="R6O-aEDRoKmDsrgJR9yp-25" value="" style="shape=tableRow;horizontal=0;startSize=0;swimlaneHead=0;swimlaneBody=0;fillColor=none;collapsible=0;dropTarget=0;points=[[0,0.5],[1,0.5]];portConstraint=eastwest;top=0;left=0;right=0;bottom=0;rounded=1;fontStyle=1;fontSize=16;" parent="R6O-aEDRoKmDsrgJR9yp-0" vertex="1">
          <mxGeometry y="313" width="250" height="39" as="geometry" />
        </mxCell>
        <mxCell id="R6O-aEDRoKmDsrgJR9yp-26" value="" style="shape=partialRectangle;connectable=0;fillColor=none;top=0;left=0;bottom=0;right=0;editable=1;overflow=hidden;whiteSpace=wrap;html=1;rounded=1;fontStyle=1;fontSize=16;" parent="R6O-aEDRoKmDsrgJR9yp-25" vertex="1">
          <mxGeometry width="30" height="39" as="geometry">
            <mxRectangle width="30" height="39" as="alternateBounds" />
          </mxGeometry>
        </mxCell>
        <mxCell id="R6O-aEDRoKmDsrgJR9yp-27" value="gender" style="shape=partialRectangle;connectable=0;fillColor=none;top=0;left=0;bottom=0;right=0;align=left;spacingLeft=6;overflow=hidden;whiteSpace=wrap;html=1;rounded=1;fontStyle=1;fontSize=16;" parent="R6O-aEDRoKmDsrgJR9yp-25" vertex="1">
          <mxGeometry x="30" width="220" height="39" as="geometry">
            <mxRectangle width="220" height="39" as="alternateBounds" />
          </mxGeometry>
        </mxCell>
        <mxCell id="R6O-aEDRoKmDsrgJR9yp-28" value="" style="shape=tableRow;horizontal=0;startSize=0;swimlaneHead=0;swimlaneBody=0;fillColor=none;collapsible=0;dropTarget=0;points=[[0,0.5],[1,0.5]];portConstraint=eastwest;top=0;left=0;right=0;bottom=0;rounded=1;fontStyle=1;fontSize=16;" parent="R6O-aEDRoKmDsrgJR9yp-0" vertex="1">
          <mxGeometry y="352" width="250" height="39" as="geometry" />
        </mxCell>
        <mxCell id="R6O-aEDRoKmDsrgJR9yp-29" value="" style="shape=partialRectangle;connectable=0;fillColor=none;top=0;left=0;bottom=0;right=0;editable=1;overflow=hidden;whiteSpace=wrap;html=1;rounded=1;fontStyle=1;fontSize=16;" parent="R6O-aEDRoKmDsrgJR9yp-28" vertex="1">
          <mxGeometry width="30" height="39" as="geometry">
            <mxRectangle width="30" height="39" as="alternateBounds" />
          </mxGeometry>
        </mxCell>
        <mxCell id="R6O-aEDRoKmDsrgJR9yp-30" value="birthdate" style="shape=partialRectangle;connectable=0;fillColor=none;top=0;left=0;bottom=0;right=0;align=left;spacingLeft=6;overflow=hidden;whiteSpace=wrap;html=1;rounded=1;fontStyle=1;fontSize=16;" parent="R6O-aEDRoKmDsrgJR9yp-28" vertex="1">
          <mxGeometry x="30" width="220" height="39" as="geometry">
            <mxRectangle width="220" height="39" as="alternateBounds" />
          </mxGeometry>
        </mxCell>
        <mxCell id="R6O-aEDRoKmDsrgJR9yp-59" value="" style="shape=tableRow;horizontal=0;startSize=0;swimlaneHead=0;swimlaneBody=0;fillColor=none;collapsible=0;dropTarget=0;points=[[0,0.5],[1,0.5]];portConstraint=eastwest;top=0;left=0;right=0;bottom=0;rounded=1;fontStyle=1;fontSize=16;" parent="R6O-aEDRoKmDsrgJR9yp-0" vertex="1">
          <mxGeometry y="391" width="250" height="39" as="geometry" />
        </mxCell>
        <mxCell id="R6O-aEDRoKmDsrgJR9yp-60" value="" style="shape=partialRectangle;connectable=0;fillColor=none;top=0;left=0;bottom=0;right=0;editable=1;overflow=hidden;whiteSpace=wrap;html=1;rounded=1;fontStyle=1;fontSize=16;" parent="R6O-aEDRoKmDsrgJR9yp-59" vertex="1">
          <mxGeometry width="30" height="39" as="geometry">
            <mxRectangle width="30" height="39" as="alternateBounds" />
          </mxGeometry>
        </mxCell>
        <mxCell id="R6O-aEDRoKmDsrgJR9yp-61" value="country" style="shape=partialRectangle;connectable=0;fillColor=none;top=0;left=0;bottom=0;right=0;align=left;spacingLeft=6;overflow=hidden;whiteSpace=wrap;html=1;rounded=1;fontStyle=1;fontSize=16;" parent="R6O-aEDRoKmDsrgJR9yp-59" vertex="1">
          <mxGeometry x="30" width="220" height="39" as="geometry">
            <mxRectangle width="220" height="39" as="alternateBounds" />
          </mxGeometry>
        </mxCell>
        <mxCell id="R6O-aEDRoKmDsrgJR9yp-31" value="&lt;font style=&quot;font-size: 18px;&quot;&gt;gold.dim_products&lt;/font&gt;" style="shape=table;startSize=40;container=1;collapsible=1;childLayout=tableLayout;fixedRows=1;rowLines=0;fontStyle=1;align=center;resizeLast=1;html=1;rounded=1;fillColor=#fff2cc;strokeColor=#d6b656;" parent="3UP7FawPSVQ9M-GqKKiO-1" vertex="1">
          <mxGeometry x="1280" y="-880" width="250" height="479" as="geometry" />
        </mxCell>
        <mxCell id="R6O-aEDRoKmDsrgJR9yp-32" value="" style="shape=tableRow;horizontal=0;startSize=0;swimlaneHead=0;swimlaneBody=0;fillColor=none;collapsible=0;dropTarget=0;points=[[0,0.5],[1,0.5]];portConstraint=eastwest;top=0;left=0;right=0;bottom=1;rounded=1;fontStyle=1;fontSize=16;" parent="R6O-aEDRoKmDsrgJR9yp-31" vertex="1">
          <mxGeometry y="40" width="250" height="39" as="geometry" />
        </mxCell>
        <mxCell id="R6O-aEDRoKmDsrgJR9yp-33" value="PK" style="shape=partialRectangle;connectable=0;fillColor=none;top=0;left=0;bottom=0;right=0;fontStyle=1;overflow=hidden;whiteSpace=wrap;html=1;rounded=1;fontSize=16;" parent="R6O-aEDRoKmDsrgJR9yp-32" vertex="1">
          <mxGeometry width="30" height="39" as="geometry">
            <mxRectangle width="30" height="39" as="alternateBounds" />
          </mxGeometry>
        </mxCell>
        <mxCell id="R6O-aEDRoKmDsrgJR9yp-34" value="&lt;span style=&quot;background-color: rgb(224, 224, 224);&quot;&gt;product_key&lt;/span&gt;" style="shape=partialRectangle;connectable=0;fillColor=none;top=0;left=0;bottom=0;right=0;align=left;spacingLeft=6;fontStyle=5;overflow=hidden;whiteSpace=wrap;html=1;rounded=1;fontSize=16;" parent="R6O-aEDRoKmDsrgJR9yp-32" vertex="1">
          <mxGeometry x="30" width="220" height="39" as="geometry">
            <mxRectangle width="220" height="39" as="alternateBounds" />
          </mxGeometry>
        </mxCell>
        <mxCell id="R6O-aEDRoKmDsrgJR9yp-35" value="" style="shape=tableRow;horizontal=0;startSize=0;swimlaneHead=0;swimlaneBody=0;fillColor=none;collapsible=0;dropTarget=0;points=[[0,0.5],[1,0.5]];portConstraint=eastwest;top=0;left=0;right=0;bottom=0;rounded=1;fontStyle=1;fontSize=16;" parent="R6O-aEDRoKmDsrgJR9yp-31" vertex="1">
          <mxGeometry y="79" width="250" height="39" as="geometry" />
        </mxCell>
        <mxCell id="R6O-aEDRoKmDsrgJR9yp-36" value="" style="shape=partialRectangle;connectable=0;fillColor=none;top=0;left=0;bottom=0;right=0;editable=1;overflow=hidden;whiteSpace=wrap;html=1;rounded=1;fontStyle=1;fontSize=16;" parent="R6O-aEDRoKmDsrgJR9yp-35" vertex="1">
          <mxGeometry width="30" height="39" as="geometry">
            <mxRectangle width="30" height="39" as="alternateBounds" />
          </mxGeometry>
        </mxCell>
        <mxCell id="R6O-aEDRoKmDsrgJR9yp-37" value="product_id" style="shape=partialRectangle;connectable=0;fillColor=none;top=0;left=0;bottom=0;right=0;align=left;spacingLeft=6;overflow=hidden;whiteSpace=wrap;html=1;rounded=1;fontStyle=1;fontSize=16;" parent="R6O-aEDRoKmDsrgJR9yp-35" vertex="1">
          <mxGeometry x="30" width="220" height="39" as="geometry">
            <mxRectangle width="220" height="39" as="alternateBounds" />
          </mxGeometry>
        </mxCell>
        <mxCell id="R6O-aEDRoKmDsrgJR9yp-38" value="" style="shape=tableRow;horizontal=0;startSize=0;swimlaneHead=0;swimlaneBody=0;fillColor=none;collapsible=0;dropTarget=0;points=[[0,0.5],[1,0.5]];portConstraint=eastwest;top=0;left=0;right=0;bottom=0;rounded=1;fontStyle=1;fontSize=16;" parent="R6O-aEDRoKmDsrgJR9yp-31" vertex="1">
          <mxGeometry y="118" width="250" height="39" as="geometry" />
        </mxCell>
        <mxCell id="R6O-aEDRoKmDsrgJR9yp-39" value="" style="shape=partialRectangle;connectable=0;fillColor=none;top=0;left=0;bottom=0;right=0;editable=1;overflow=hidden;whiteSpace=wrap;html=1;rounded=1;fontStyle=1;fontSize=16;" parent="R6O-aEDRoKmDsrgJR9yp-38" vertex="1">
          <mxGeometry width="30" height="39" as="geometry">
            <mxRectangle width="30" height="39" as="alternateBounds" />
          </mxGeometry>
        </mxCell>
        <mxCell id="R6O-aEDRoKmDsrgJR9yp-40" value="product_number" style="shape=partialRectangle;connectable=0;fillColor=none;top=0;left=0;bottom=0;right=0;align=left;spacingLeft=6;overflow=hidden;whiteSpace=wrap;html=1;rounded=1;fontStyle=1;fontSize=16;" parent="R6O-aEDRoKmDsrgJR9yp-38" vertex="1">
          <mxGeometry x="30" width="220" height="39" as="geometry">
            <mxRectangle width="220" height="39" as="alternateBounds" />
          </mxGeometry>
        </mxCell>
        <mxCell id="R6O-aEDRoKmDsrgJR9yp-41" value="" style="shape=tableRow;horizontal=0;startSize=0;swimlaneHead=0;swimlaneBody=0;fillColor=none;collapsible=0;dropTarget=0;points=[[0,0.5],[1,0.5]];portConstraint=eastwest;top=0;left=0;right=0;bottom=0;rounded=1;fontStyle=1;fontSize=16;" parent="R6O-aEDRoKmDsrgJR9yp-31" vertex="1">
          <mxGeometry y="157" width="250" height="39" as="geometry" />
        </mxCell>
        <mxCell id="R6O-aEDRoKmDsrgJR9yp-42" value="" style="shape=partialRectangle;connectable=0;fillColor=none;top=0;left=0;bottom=0;right=0;editable=1;overflow=hidden;whiteSpace=wrap;html=1;rounded=1;fontStyle=1;fontSize=16;" parent="R6O-aEDRoKmDsrgJR9yp-41" vertex="1">
          <mxGeometry width="30" height="39" as="geometry">
            <mxRectangle width="30" height="39" as="alternateBounds" />
          </mxGeometry>
        </mxCell>
        <mxCell id="R6O-aEDRoKmDsrgJR9yp-43" value="product_name" style="shape=partialRectangle;connectable=0;fillColor=none;top=0;left=0;bottom=0;right=0;align=left;spacingLeft=6;overflow=hidden;whiteSpace=wrap;html=1;rounded=1;fontStyle=1;fontSize=16;" parent="R6O-aEDRoKmDsrgJR9yp-41" vertex="1">
          <mxGeometry x="30" width="220" height="39" as="geometry">
            <mxRectangle width="220" height="39" as="alternateBounds" />
          </mxGeometry>
        </mxCell>
        <mxCell id="R6O-aEDRoKmDsrgJR9yp-62" value="" style="shape=tableRow;horizontal=0;startSize=0;swimlaneHead=0;swimlaneBody=0;fillColor=none;collapsible=0;dropTarget=0;points=[[0,0.5],[1,0.5]];portConstraint=eastwest;top=0;left=0;right=0;bottom=0;rounded=1;fontStyle=1;fontSize=16;" parent="R6O-aEDRoKmDsrgJR9yp-31" vertex="1">
          <mxGeometry y="196" width="250" height="39" as="geometry" />
        </mxCell>
        <mxCell id="R6O-aEDRoKmDsrgJR9yp-63" value="" style="shape=partialRectangle;connectable=0;fillColor=none;top=0;left=0;bottom=0;right=0;editable=1;overflow=hidden;whiteSpace=wrap;html=1;rounded=1;fontStyle=1;fontSize=16;" parent="R6O-aEDRoKmDsrgJR9yp-62" vertex="1">
          <mxGeometry width="30" height="39" as="geometry">
            <mxRectangle width="30" height="39" as="alternateBounds" />
          </mxGeometry>
        </mxCell>
        <mxCell id="R6O-aEDRoKmDsrgJR9yp-64" value="category_id" style="shape=partialRectangle;connectable=0;fillColor=none;top=0;left=0;bottom=0;right=0;align=left;spacingLeft=6;overflow=hidden;whiteSpace=wrap;html=1;rounded=1;fontStyle=1;fontSize=16;" parent="R6O-aEDRoKmDsrgJR9yp-62" vertex="1">
          <mxGeometry x="30" width="220" height="39" as="geometry">
            <mxRectangle width="220" height="39" as="alternateBounds" />
          </mxGeometry>
        </mxCell>
        <mxCell id="R6O-aEDRoKmDsrgJR9yp-44" value="" style="shape=tableRow;horizontal=0;startSize=0;swimlaneHead=0;swimlaneBody=0;fillColor=none;collapsible=0;dropTarget=0;points=[[0,0.5],[1,0.5]];portConstraint=eastwest;top=0;left=0;right=0;bottom=0;rounded=1;fontStyle=1;fontSize=16;" parent="R6O-aEDRoKmDsrgJR9yp-31" vertex="1">
          <mxGeometry y="235" width="250" height="39" as="geometry" />
        </mxCell>
        <mxCell id="R6O-aEDRoKmDsrgJR9yp-45" value="" style="shape=partialRectangle;connectable=0;fillColor=none;top=0;left=0;bottom=0;right=0;editable=1;overflow=hidden;whiteSpace=wrap;html=1;rounded=1;fontStyle=1;fontSize=16;" parent="R6O-aEDRoKmDsrgJR9yp-44" vertex="1">
          <mxGeometry width="30" height="39" as="geometry">
            <mxRectangle width="30" height="39" as="alternateBounds" />
          </mxGeometry>
        </mxCell>
        <mxCell id="R6O-aEDRoKmDsrgJR9yp-46" value="category" style="shape=partialRectangle;connectable=0;fillColor=none;top=0;left=0;bottom=0;right=0;align=left;spacingLeft=6;overflow=hidden;whiteSpace=wrap;html=1;rounded=1;fontStyle=1;fontSize=16;" parent="R6O-aEDRoKmDsrgJR9yp-44" vertex="1">
          <mxGeometry x="30" width="220" height="39" as="geometry">
            <mxRectangle width="220" height="39" as="alternateBounds" />
          </mxGeometry>
        </mxCell>
        <mxCell id="R6O-aEDRoKmDsrgJR9yp-47" value="" style="shape=tableRow;horizontal=0;startSize=0;swimlaneHead=0;swimlaneBody=0;fillColor=none;collapsible=0;dropTarget=0;points=[[0,0.5],[1,0.5]];portConstraint=eastwest;top=0;left=0;right=0;bottom=0;rounded=1;fontStyle=1;fontSize=16;" parent="R6O-aEDRoKmDsrgJR9yp-31" vertex="1">
          <mxGeometry y="274" width="250" height="39" as="geometry" />
        </mxCell>
        <mxCell id="R6O-aEDRoKmDsrgJR9yp-48" value="" style="shape=partialRectangle;connectable=0;fillColor=none;top=0;left=0;bottom=0;right=0;editable=1;overflow=hidden;whiteSpace=wrap;html=1;rounded=1;fontStyle=1;fontSize=16;" parent="R6O-aEDRoKmDsrgJR9yp-47" vertex="1">
          <mxGeometry width="30" height="39" as="geometry">
            <mxRectangle width="30" height="39" as="alternateBounds" />
          </mxGeometry>
        </mxCell>
        <mxCell id="R6O-aEDRoKmDsrgJR9yp-49" value="subcategory" style="shape=partialRectangle;connectable=0;fillColor=none;top=0;left=0;bottom=0;right=0;align=left;spacingLeft=6;overflow=hidden;whiteSpace=wrap;html=1;rounded=1;fontStyle=1;fontSize=16;" parent="R6O-aEDRoKmDsrgJR9yp-47" vertex="1">
          <mxGeometry x="30" width="220" height="39" as="geometry">
            <mxRectangle width="220" height="39" as="alternateBounds" />
          </mxGeometry>
        </mxCell>
        <mxCell id="R6O-aEDRoKmDsrgJR9yp-50" value="" style="shape=tableRow;horizontal=0;startSize=0;swimlaneHead=0;swimlaneBody=0;fillColor=none;collapsible=0;dropTarget=0;points=[[0,0.5],[1,0.5]];portConstraint=eastwest;top=0;left=0;right=0;bottom=0;rounded=1;fontStyle=1;fontSize=16;" parent="R6O-aEDRoKmDsrgJR9yp-31" vertex="1">
          <mxGeometry y="313" width="250" height="39" as="geometry" />
        </mxCell>
        <mxCell id="R6O-aEDRoKmDsrgJR9yp-51" value="" style="shape=partialRectangle;connectable=0;fillColor=none;top=0;left=0;bottom=0;right=0;editable=1;overflow=hidden;whiteSpace=wrap;html=1;rounded=1;fontStyle=1;fontSize=16;" parent="R6O-aEDRoKmDsrgJR9yp-50" vertex="1">
          <mxGeometry width="30" height="39" as="geometry">
            <mxRectangle width="30" height="39" as="alternateBounds" />
          </mxGeometry>
        </mxCell>
        <mxCell id="R6O-aEDRoKmDsrgJR9yp-52" value="maintenance" style="shape=partialRectangle;connectable=0;fillColor=none;top=0;left=0;bottom=0;right=0;align=left;spacingLeft=6;overflow=hidden;whiteSpace=wrap;html=1;rounded=1;fontStyle=1;fontSize=16;" parent="R6O-aEDRoKmDsrgJR9yp-50" vertex="1">
          <mxGeometry x="30" width="220" height="39" as="geometry">
            <mxRectangle width="220" height="39" as="alternateBounds" />
          </mxGeometry>
        </mxCell>
        <mxCell id="R6O-aEDRoKmDsrgJR9yp-53" value="" style="shape=tableRow;horizontal=0;startSize=0;swimlaneHead=0;swimlaneBody=0;fillColor=none;collapsible=0;dropTarget=0;points=[[0,0.5],[1,0.5]];portConstraint=eastwest;top=0;left=0;right=0;bottom=0;rounded=1;fontStyle=1;fontSize=16;" parent="R6O-aEDRoKmDsrgJR9yp-31" vertex="1">
          <mxGeometry y="352" width="250" height="39" as="geometry" />
        </mxCell>
        <mxCell id="R6O-aEDRoKmDsrgJR9yp-54" value="" style="shape=partialRectangle;connectable=0;fillColor=none;top=0;left=0;bottom=0;right=0;editable=1;overflow=hidden;whiteSpace=wrap;html=1;rounded=1;fontStyle=1;fontSize=16;" parent="R6O-aEDRoKmDsrgJR9yp-53" vertex="1">
          <mxGeometry width="30" height="39" as="geometry">
            <mxRectangle width="30" height="39" as="alternateBounds" />
          </mxGeometry>
        </mxCell>
        <mxCell id="R6O-aEDRoKmDsrgJR9yp-55" value="cost" style="shape=partialRectangle;connectable=0;fillColor=none;top=0;left=0;bottom=0;right=0;align=left;spacingLeft=6;overflow=hidden;whiteSpace=wrap;html=1;rounded=1;fontStyle=1;fontSize=16;" parent="R6O-aEDRoKmDsrgJR9yp-53" vertex="1">
          <mxGeometry x="30" width="220" height="39" as="geometry">
            <mxRectangle width="220" height="39" as="alternateBounds" />
          </mxGeometry>
        </mxCell>
        <mxCell id="R6O-aEDRoKmDsrgJR9yp-56" value="" style="shape=tableRow;horizontal=0;startSize=0;swimlaneHead=0;swimlaneBody=0;fillColor=none;collapsible=0;dropTarget=0;points=[[0,0.5],[1,0.5]];portConstraint=eastwest;top=0;left=0;right=0;bottom=0;rounded=1;fontStyle=1;fontSize=16;" parent="R6O-aEDRoKmDsrgJR9yp-31" vertex="1">
          <mxGeometry y="391" width="250" height="39" as="geometry" />
        </mxCell>
        <mxCell id="R6O-aEDRoKmDsrgJR9yp-57" value="" style="shape=partialRectangle;connectable=0;fillColor=none;top=0;left=0;bottom=0;right=0;editable=1;overflow=hidden;whiteSpace=wrap;html=1;rounded=1;fontStyle=1;fontSize=16;" parent="R6O-aEDRoKmDsrgJR9yp-56" vertex="1">
          <mxGeometry width="30" height="39" as="geometry">
            <mxRectangle width="30" height="39" as="alternateBounds" />
          </mxGeometry>
        </mxCell>
        <mxCell id="R6O-aEDRoKmDsrgJR9yp-58" value="product_line" style="shape=partialRectangle;connectable=0;fillColor=none;top=0;left=0;bottom=0;right=0;align=left;spacingLeft=6;overflow=hidden;whiteSpace=wrap;html=1;rounded=1;fontStyle=1;fontSize=16;" parent="R6O-aEDRoKmDsrgJR9yp-56" vertex="1">
          <mxGeometry x="30" width="220" height="39" as="geometry">
            <mxRectangle width="220" height="39" as="alternateBounds" />
          </mxGeometry>
        </mxCell>
        <mxCell id="R6O-aEDRoKmDsrgJR9yp-65" value="" style="shape=tableRow;horizontal=0;startSize=0;swimlaneHead=0;swimlaneBody=0;fillColor=none;collapsible=0;dropTarget=0;points=[[0,0.5],[1,0.5]];portConstraint=eastwest;top=0;left=0;right=0;bottom=0;rounded=1;fontStyle=1;fontSize=16;" parent="R6O-aEDRoKmDsrgJR9yp-31" vertex="1">
          <mxGeometry y="430" width="250" height="39" as="geometry" />
        </mxCell>
        <mxCell id="R6O-aEDRoKmDsrgJR9yp-66" value="" style="shape=partialRectangle;connectable=0;fillColor=none;top=0;left=0;bottom=0;right=0;editable=1;overflow=hidden;whiteSpace=wrap;html=1;rounded=1;fontStyle=1;fontSize=16;" parent="R6O-aEDRoKmDsrgJR9yp-65" vertex="1">
          <mxGeometry width="30" height="39" as="geometry">
            <mxRectangle width="30" height="39" as="alternateBounds" />
          </mxGeometry>
        </mxCell>
        <mxCell id="R6O-aEDRoKmDsrgJR9yp-67" value="start_date" style="shape=partialRectangle;connectable=0;fillColor=none;top=0;left=0;bottom=0;right=0;align=left;spacingLeft=6;overflow=hidden;whiteSpace=wrap;html=1;rounded=1;fontStyle=1;fontSize=16;" parent="R6O-aEDRoKmDsrgJR9yp-65" vertex="1">
          <mxGeometry x="30" width="220" height="39" as="geometry">
            <mxRectangle width="220" height="39" as="alternateBounds" />
          </mxGeometry>
        </mxCell>
        <mxCell id="R6O-aEDRoKmDsrgJR9yp-68" value="&lt;font style=&quot;font-size: 18px;&quot;&gt;gold.fact_sales&lt;/font&gt;" style="shape=table;startSize=40;container=1;collapsible=1;childLayout=tableLayout;fixedRows=1;rowLines=0;fontStyle=1;align=center;resizeLast=1;html=1;rounded=1;fillColor=#dae8fc;strokeColor=#6c8ebf;" parent="3UP7FawPSVQ9M-GqKKiO-1" vertex="1">
          <mxGeometry x="850" y="-880" width="250" height="401" as="geometry" />
        </mxCell>
        <mxCell id="R6O-aEDRoKmDsrgJR9yp-72" value="" style="shape=tableRow;horizontal=0;startSize=0;swimlaneHead=0;swimlaneBody=0;fillColor=none;collapsible=0;dropTarget=0;points=[[0,0.5],[1,0.5]];portConstraint=eastwest;top=0;left=0;right=0;bottom=0;rounded=1;fontStyle=1;fontSize=16;" parent="R6O-aEDRoKmDsrgJR9yp-68" vertex="1">
          <mxGeometry y="40" width="250" height="39" as="geometry" />
        </mxCell>
        <mxCell id="R6O-aEDRoKmDsrgJR9yp-73" value="" style="shape=partialRectangle;connectable=0;fillColor=none;top=0;left=0;bottom=0;right=0;editable=1;overflow=hidden;whiteSpace=wrap;html=1;rounded=1;fontStyle=1;fontSize=16;" parent="R6O-aEDRoKmDsrgJR9yp-72" vertex="1">
          <mxGeometry width="40" height="39" as="geometry">
            <mxRectangle width="40" height="39" as="alternateBounds" />
          </mxGeometry>
        </mxCell>
        <mxCell id="R6O-aEDRoKmDsrgJR9yp-74" value="order_number" style="shape=partialRectangle;connectable=0;fillColor=none;top=0;left=0;bottom=0;right=0;align=left;spacingLeft=6;overflow=hidden;whiteSpace=wrap;html=1;rounded=1;fontStyle=1;fontSize=16;" parent="R6O-aEDRoKmDsrgJR9yp-72" vertex="1">
          <mxGeometry x="40" width="210" height="39" as="geometry">
            <mxRectangle width="210" height="39" as="alternateBounds" />
          </mxGeometry>
        </mxCell>
        <mxCell id="R6O-aEDRoKmDsrgJR9yp-75" value="" style="shape=tableRow;horizontal=0;startSize=0;swimlaneHead=0;swimlaneBody=0;fillColor=none;collapsible=0;dropTarget=0;points=[[0,0.5],[1,0.5]];portConstraint=eastwest;top=0;left=0;right=0;bottom=0;rounded=1;fontStyle=1;fontSize=16;" parent="R6O-aEDRoKmDsrgJR9yp-68" vertex="1">
          <mxGeometry y="79" width="250" height="39" as="geometry" />
        </mxCell>
        <mxCell id="R6O-aEDRoKmDsrgJR9yp-76" value="FK1" style="shape=partialRectangle;connectable=0;fillColor=none;top=0;left=0;bottom=0;right=0;editable=1;overflow=hidden;whiteSpace=wrap;html=1;rounded=1;fontStyle=1;fontSize=16;" parent="R6O-aEDRoKmDsrgJR9yp-75" vertex="1">
          <mxGeometry width="40" height="39" as="geometry">
            <mxRectangle width="40" height="39" as="alternateBounds" />
          </mxGeometry>
        </mxCell>
        <mxCell id="R6O-aEDRoKmDsrgJR9yp-77" value="&lt;span style=&quot;background-color: rgb(207, 207, 207);&quot;&gt;product_key&lt;/span&gt;" style="shape=partialRectangle;connectable=0;fillColor=none;top=0;left=0;bottom=0;right=0;align=left;spacingLeft=6;overflow=hidden;whiteSpace=wrap;html=1;rounded=1;fontStyle=1;fontSize=16;" parent="R6O-aEDRoKmDsrgJR9yp-75" vertex="1">
          <mxGeometry x="40" width="210" height="39" as="geometry">
            <mxRectangle width="210" height="39" as="alternateBounds" />
          </mxGeometry>
        </mxCell>
        <mxCell id="R6O-aEDRoKmDsrgJR9yp-78" value="" style="shape=tableRow;horizontal=0;startSize=0;swimlaneHead=0;swimlaneBody=0;fillColor=none;collapsible=0;dropTarget=0;points=[[0,0.5],[1,0.5]];portConstraint=eastwest;top=0;left=0;right=0;bottom=0;rounded=1;fontStyle=1;fontSize=16;" parent="R6O-aEDRoKmDsrgJR9yp-68" vertex="1">
          <mxGeometry y="118" width="250" height="39" as="geometry" />
        </mxCell>
        <mxCell id="R6O-aEDRoKmDsrgJR9yp-79" value="FK2" style="shape=partialRectangle;connectable=0;fillColor=none;top=0;left=0;bottom=0;right=0;editable=1;overflow=hidden;whiteSpace=wrap;html=1;rounded=1;fontStyle=1;fontSize=16;" parent="R6O-aEDRoKmDsrgJR9yp-78" vertex="1">
          <mxGeometry width="40" height="39" as="geometry">
            <mxRectangle width="40" height="39" as="alternateBounds" />
          </mxGeometry>
        </mxCell>
        <mxCell id="R6O-aEDRoKmDsrgJR9yp-80" value="&lt;span style=&quot;background-color: rgb(207, 207, 207);&quot;&gt;customer_key&lt;/span&gt;" style="shape=partialRectangle;connectable=0;fillColor=none;top=0;left=0;bottom=0;right=0;align=left;spacingLeft=6;overflow=hidden;whiteSpace=wrap;html=1;rounded=1;fontStyle=1;fontSize=16;" parent="R6O-aEDRoKmDsrgJR9yp-78" vertex="1">
          <mxGeometry x="40" width="210" height="39" as="geometry">
            <mxRectangle width="210" height="39" as="alternateBounds" />
          </mxGeometry>
        </mxCell>
        <mxCell id="R6O-aEDRoKmDsrgJR9yp-81" value="" style="shape=tableRow;horizontal=0;startSize=0;swimlaneHead=0;swimlaneBody=0;fillColor=none;collapsible=0;dropTarget=0;points=[[0,0.5],[1,0.5]];portConstraint=eastwest;top=0;left=0;right=0;bottom=0;rounded=1;fontStyle=1;fontSize=16;" parent="R6O-aEDRoKmDsrgJR9yp-68" vertex="1">
          <mxGeometry y="157" width="250" height="39" as="geometry" />
        </mxCell>
        <mxCell id="R6O-aEDRoKmDsrgJR9yp-82" value="" style="shape=partialRectangle;connectable=0;fillColor=none;top=0;left=0;bottom=0;right=0;editable=1;overflow=hidden;whiteSpace=wrap;html=1;rounded=1;fontStyle=1;fontSize=16;" parent="R6O-aEDRoKmDsrgJR9yp-81" vertex="1">
          <mxGeometry width="40" height="39" as="geometry">
            <mxRectangle width="40" height="39" as="alternateBounds" />
          </mxGeometry>
        </mxCell>
        <mxCell id="R6O-aEDRoKmDsrgJR9yp-83" value="order_date" style="shape=partialRectangle;connectable=0;fillColor=none;top=0;left=0;bottom=0;right=0;align=left;spacingLeft=6;overflow=hidden;whiteSpace=wrap;html=1;rounded=1;fontStyle=1;fontSize=16;" parent="R6O-aEDRoKmDsrgJR9yp-81" vertex="1">
          <mxGeometry x="40" width="210" height="39" as="geometry">
            <mxRectangle width="210" height="39" as="alternateBounds" />
          </mxGeometry>
        </mxCell>
        <mxCell id="R6O-aEDRoKmDsrgJR9yp-84" value="" style="shape=tableRow;horizontal=0;startSize=0;swimlaneHead=0;swimlaneBody=0;fillColor=none;collapsible=0;dropTarget=0;points=[[0,0.5],[1,0.5]];portConstraint=eastwest;top=0;left=0;right=0;bottom=0;rounded=1;fontStyle=1;fontSize=16;" parent="R6O-aEDRoKmDsrgJR9yp-68" vertex="1">
          <mxGeometry y="196" width="250" height="39" as="geometry" />
        </mxCell>
        <mxCell id="R6O-aEDRoKmDsrgJR9yp-85" value="" style="shape=partialRectangle;connectable=0;fillColor=none;top=0;left=0;bottom=0;right=0;editable=1;overflow=hidden;whiteSpace=wrap;html=1;rounded=1;fontStyle=1;fontSize=16;" parent="R6O-aEDRoKmDsrgJR9yp-84" vertex="1">
          <mxGeometry width="40" height="39" as="geometry">
            <mxRectangle width="40" height="39" as="alternateBounds" />
          </mxGeometry>
        </mxCell>
        <mxCell id="R6O-aEDRoKmDsrgJR9yp-86" value="shipping_date" style="shape=partialRectangle;connectable=0;fillColor=none;top=0;left=0;bottom=0;right=0;align=left;spacingLeft=6;overflow=hidden;whiteSpace=wrap;html=1;rounded=1;fontStyle=1;fontSize=16;" parent="R6O-aEDRoKmDsrgJR9yp-84" vertex="1">
          <mxGeometry x="40" width="210" height="39" as="geometry">
            <mxRectangle width="210" height="39" as="alternateBounds" />
          </mxGeometry>
        </mxCell>
        <mxCell id="R6O-aEDRoKmDsrgJR9yp-87" value="" style="shape=tableRow;horizontal=0;startSize=0;swimlaneHead=0;swimlaneBody=0;fillColor=none;collapsible=0;dropTarget=0;points=[[0,0.5],[1,0.5]];portConstraint=eastwest;top=0;left=0;right=0;bottom=0;rounded=1;fontStyle=1;fontSize=16;" parent="R6O-aEDRoKmDsrgJR9yp-68" vertex="1">
          <mxGeometry y="235" width="250" height="39" as="geometry" />
        </mxCell>
        <mxCell id="R6O-aEDRoKmDsrgJR9yp-88" value="" style="shape=partialRectangle;connectable=0;fillColor=none;top=0;left=0;bottom=0;right=0;editable=1;overflow=hidden;whiteSpace=wrap;html=1;rounded=1;fontStyle=1;fontSize=16;" parent="R6O-aEDRoKmDsrgJR9yp-87" vertex="1">
          <mxGeometry width="40" height="39" as="geometry">
            <mxRectangle width="40" height="39" as="alternateBounds" />
          </mxGeometry>
        </mxCell>
        <mxCell id="R6O-aEDRoKmDsrgJR9yp-89" value="due_date" style="shape=partialRectangle;connectable=0;fillColor=none;top=0;left=0;bottom=0;right=0;align=left;spacingLeft=6;overflow=hidden;whiteSpace=wrap;html=1;rounded=1;fontStyle=1;fontSize=16;" parent="R6O-aEDRoKmDsrgJR9yp-87" vertex="1">
          <mxGeometry x="40" width="210" height="39" as="geometry">
            <mxRectangle width="210" height="39" as="alternateBounds" />
          </mxGeometry>
        </mxCell>
        <mxCell id="R6O-aEDRoKmDsrgJR9yp-90" value="" style="shape=tableRow;horizontal=0;startSize=0;swimlaneHead=0;swimlaneBody=0;fillColor=none;collapsible=0;dropTarget=0;points=[[0,0.5],[1,0.5]];portConstraint=eastwest;top=0;left=0;right=0;bottom=0;rounded=1;fontStyle=1;fontSize=16;" parent="R6O-aEDRoKmDsrgJR9yp-68" vertex="1">
          <mxGeometry y="274" width="250" height="39" as="geometry" />
        </mxCell>
        <mxCell id="R6O-aEDRoKmDsrgJR9yp-91" value="" style="shape=partialRectangle;connectable=0;fillColor=none;top=0;left=0;bottom=0;right=0;editable=1;overflow=hidden;whiteSpace=wrap;html=1;rounded=1;fontStyle=1;fontSize=16;" parent="R6O-aEDRoKmDsrgJR9yp-90" vertex="1">
          <mxGeometry width="40" height="39" as="geometry">
            <mxRectangle width="40" height="39" as="alternateBounds" />
          </mxGeometry>
        </mxCell>
        <mxCell id="R6O-aEDRoKmDsrgJR9yp-92" value="sales_amount" style="shape=partialRectangle;connectable=0;fillColor=none;top=0;left=0;bottom=0;right=0;align=left;spacingLeft=6;overflow=hidden;whiteSpace=wrap;html=1;rounded=1;fontStyle=1;fontSize=16;" parent="R6O-aEDRoKmDsrgJR9yp-90" vertex="1">
          <mxGeometry x="40" width="210" height="39" as="geometry">
            <mxRectangle width="210" height="39" as="alternateBounds" />
          </mxGeometry>
        </mxCell>
        <mxCell id="R6O-aEDRoKmDsrgJR9yp-93" value="" style="shape=tableRow;horizontal=0;startSize=0;swimlaneHead=0;swimlaneBody=0;fillColor=none;collapsible=0;dropTarget=0;points=[[0,0.5],[1,0.5]];portConstraint=eastwest;top=0;left=0;right=0;bottom=0;rounded=1;fontStyle=1;fontSize=16;" parent="R6O-aEDRoKmDsrgJR9yp-68" vertex="1">
          <mxGeometry y="313" width="250" height="39" as="geometry" />
        </mxCell>
        <mxCell id="R6O-aEDRoKmDsrgJR9yp-94" value="" style="shape=partialRectangle;connectable=0;fillColor=none;top=0;left=0;bottom=0;right=0;editable=1;overflow=hidden;whiteSpace=wrap;html=1;rounded=1;fontStyle=1;fontSize=16;" parent="R6O-aEDRoKmDsrgJR9yp-93" vertex="1">
          <mxGeometry width="40" height="39" as="geometry">
            <mxRectangle width="40" height="39" as="alternateBounds" />
          </mxGeometry>
        </mxCell>
        <mxCell id="R6O-aEDRoKmDsrgJR9yp-95" value="quantity" style="shape=partialRectangle;connectable=0;fillColor=none;top=0;left=0;bottom=0;right=0;align=left;spacingLeft=6;overflow=hidden;whiteSpace=wrap;html=1;rounded=1;fontStyle=1;fontSize=16;" parent="R6O-aEDRoKmDsrgJR9yp-93" vertex="1">
          <mxGeometry x="40" width="210" height="39" as="geometry">
            <mxRectangle width="210" height="39" as="alternateBounds" />
          </mxGeometry>
        </mxCell>
        <mxCell id="R6O-aEDRoKmDsrgJR9yp-96" value="" style="shape=tableRow;horizontal=0;startSize=0;swimlaneHead=0;swimlaneBody=0;fillColor=none;collapsible=0;dropTarget=0;points=[[0,0.5],[1,0.5]];portConstraint=eastwest;top=0;left=0;right=0;bottom=0;rounded=1;fontStyle=1;fontSize=16;" parent="R6O-aEDRoKmDsrgJR9yp-68" vertex="1">
          <mxGeometry y="352" width="250" height="39" as="geometry" />
        </mxCell>
        <mxCell id="R6O-aEDRoKmDsrgJR9yp-97" value="" style="shape=partialRectangle;connectable=0;fillColor=none;top=0;left=0;bottom=0;right=0;editable=1;overflow=hidden;whiteSpace=wrap;html=1;rounded=1;fontStyle=1;fontSize=16;" parent="R6O-aEDRoKmDsrgJR9yp-96" vertex="1">
          <mxGeometry width="40" height="39" as="geometry">
            <mxRectangle width="40" height="39" as="alternateBounds" />
          </mxGeometry>
        </mxCell>
        <mxCell id="R6O-aEDRoKmDsrgJR9yp-98" value="price" style="shape=partialRectangle;connectable=0;fillColor=none;top=0;left=0;bottom=0;right=0;align=left;spacingLeft=6;overflow=hidden;whiteSpace=wrap;html=1;rounded=1;fontStyle=1;fontSize=16;" parent="R6O-aEDRoKmDsrgJR9yp-96" vertex="1">
          <mxGeometry x="40" width="210" height="39" as="geometry">
            <mxRectangle width="210" height="39" as="alternateBounds" />
          </mxGeometry>
        </mxCell>
        <mxCell id="csrDLbsbW8Z240NMMo87-0" value="" style="edgeStyle=entityRelationEdgeStyle;fontSize=12;html=1;endArrow=ERzeroToMany;startArrow=ERmandOne;rounded=0;exitX=1;exitY=0.5;exitDx=0;exitDy=0;entryX=0;entryY=0.5;entryDx=0;entryDy=0;" parent="3UP7FawPSVQ9M-GqKKiO-1" source="R6O-aEDRoKmDsrgJR9yp-1" target="R6O-aEDRoKmDsrgJR9yp-78" edge="1">
          <mxGeometry width="100" height="100" relative="1" as="geometry">
            <mxPoint x="720" y="-750" as="sourcePoint" />
            <mxPoint x="820" y="-850" as="targetPoint" />
          </mxGeometry>
        </mxCell>
        <mxCell id="csrDLbsbW8Z240NMMo87-3" value="" style="edgeStyle=entityRelationEdgeStyle;fontSize=12;html=1;endArrow=ERzeroToMany;startArrow=ERmandOne;rounded=0;entryX=1;entryY=0.5;entryDx=0;entryDy=0;exitX=0;exitY=0.5;exitDx=0;exitDy=0;" parent="3UP7FawPSVQ9M-GqKKiO-1" source="R6O-aEDRoKmDsrgJR9yp-32" target="R6O-aEDRoKmDsrgJR9yp-75" edge="1">
          <mxGeometry width="100" height="100" relative="1" as="geometry">
            <mxPoint x="1150" y="-690" as="sourcePoint" />
            <mxPoint x="1250" y="-790" as="targetPoint" />
          </mxGeometry>
        </mxCell>
        <mxCell id="393JwQB-S0fpes_FfvBV-1" value="" style="endArrow=none;dashed=1;html=1;strokeWidth=1;rounded=0;exitX=0.25;exitY=0;exitDx=0;exitDy=0;" parent="3UP7FawPSVQ9M-GqKKiO-1" source="cKpWiF2jTVXp_otE-Gma-1" target="R6O-aEDRoKmDsrgJR9yp-90" edge="1">
          <mxGeometry width="50" height="50" relative="1" as="geometry">
            <mxPoint x="910" y="-400" as="sourcePoint" />
            <mxPoint x="960" y="-450" as="targetPoint" />
          </mxGeometry>
        </mxCell>
        <mxCell id="yb9rAjuN-9mop6ua0U28-0" value="&lt;u&gt;&lt;b style=&quot;font-size: 17px;&quot;&gt;material_status&lt;/b&gt;&lt;br style=&quot;font-size: 17px;&quot;&gt;&lt;/u&gt;&lt;div style=&quot;font-size: 17px;&quot;&gt;&lt;span style=&quot;background-color: initial; font-size: 17px;&quot;&gt;- Married&lt;/span&gt;&lt;/div&gt;&lt;span style=&quot;background-color: initial; font-size: 17px;&quot;&gt;&lt;div style=&quot;font-size: 17px;&quot;&gt;&lt;span style=&quot;background-color: initial; font-size: 17px;&quot;&gt;- Single&lt;/span&gt;&lt;/div&gt;&lt;/span&gt;" style="text;html=1;strokeColor=none;fillColor=none;align=left;verticalAlign=middle;whiteSpace=wrap;rounded=0;fontSize=17;" parent="3UP7FawPSVQ9M-GqKKiO-1" vertex="1">
          <mxGeometry x="270" y="-660" width="130" height="66" as="geometry" />
        </mxCell>
        <mxCell id="cKpWiF2jTVXp_otE-Gma-0" value="&lt;u&gt;&lt;b style=&quot;font-size: 17px;&quot;&gt;maintenance&lt;/b&gt;&lt;br style=&quot;font-size: 17px;&quot;&gt;&lt;/u&gt;&lt;div style=&quot;font-size: 17px;&quot;&gt;&lt;span style=&quot;background-color: initial; font-size: 17px;&quot;&gt;- Yes&lt;/span&gt;&lt;/div&gt;&lt;span style=&quot;background-color: initial; font-size: 17px;&quot;&gt;&lt;div style=&quot;font-size: 17px;&quot;&gt;&lt;span style=&quot;background-color: initial; font-size: 17px;&quot;&gt;-&amp;nbsp; No&lt;/span&gt;&lt;/div&gt;&lt;/span&gt;" style="text;html=1;strokeColor=none;fillColor=none;align=left;verticalAlign=middle;whiteSpace=wrap;rounded=0;fontSize=17;" parent="3UP7FawPSVQ9M-GqKKiO-1" vertex="1">
          <mxGeometry x="1620" y="-554" width="200" height="66" as="geometry" />
        </mxCell>
        <mxCell id="cKpWiF2jTVXp_otE-Gma-1" value="&lt;u&gt;&lt;b style=&quot;font-size: 17px;&quot;&gt;Sales Calculation&lt;br&gt;&lt;/b&gt;&lt;br style=&quot;font-size: 17px;&quot;&gt;&lt;/u&gt;&lt;div style=&quot;font-size: 17px;&quot;&gt;Sales = Quantity * price&lt;br&gt;&lt;/div&gt;" style="text;html=1;strokeColor=none;fillColor=none;align=left;verticalAlign=middle;whiteSpace=wrap;rounded=0;fontSize=17;" parent="3UP7FawPSVQ9M-GqKKiO-1" vertex="1">
          <mxGeometry x="1010" y="-430" width="200" height="66" as="geometry" />
        </mxCell>
        <mxCell id="cKpWiF2jTVXp_otE-Gma-2" value="" style="endArrow=none;dashed=1;html=1;strokeWidth=1;rounded=0;exitX=1;exitY=0.5;exitDx=0;exitDy=0;entryX=0;entryY=0.5;entryDx=0;entryDy=0;" parent="3UP7FawPSVQ9M-GqKKiO-1" source="R6O-aEDRoKmDsrgJR9yp-50" target="cKpWiF2jTVXp_otE-Gma-0" edge="1">
          <mxGeometry width="50" height="50" relative="1" as="geometry">
            <mxPoint x="1070" y="-420" as="sourcePoint" />
            <mxPoint x="996" y="-557" as="targetPoint" />
          </mxGeometry>
        </mxCell>
        <mxCell id="cKpWiF2jTVXp_otE-Gma-3" value="" style="endArrow=none;dashed=1;html=1;strokeWidth=1;rounded=0;entryX=1;entryY=0.25;entryDx=0;entryDy=0;" parent="3UP7FawPSVQ9M-GqKKiO-1" target="yb9rAjuN-9mop6ua0U28-0" edge="1">
          <mxGeometry width="50" height="50" relative="1" as="geometry">
            <mxPoint x="440" y="-600" as="sourcePoint" />
            <mxPoint x="410" y="-684" as="targetPoint" />
          </mxGeometry>
        </mxCell>
      </root>
    </mxGraphModel>
  </diagram>
</mxfile>
